<?xml version="1.0" standalone="no"?>
<!DOCTYPE svg PUBLIC "-//W3C//DTD SVG 20010904//EN"
 "http://www.w3.org/TR/2001/REC-SVG-20010904/DTD/svg10.dtd">
<svg version="1.0" xmlns="http://www.w3.org/2000/svg"
 width="630.000000pt" height="630.000000pt" viewBox="0 0 630.000000 630.000000"
 preserveAspectRatio="xMidYMid meet">
<metadata>
Created by potrace 1.15, written by Peter Selinger 2001-2017
</metadata>
<g transform="translate(0.000000,630.000000) scale(0.100000,-0.100000)"
fill="#000000" stroke="none">
<path d="M3035 5746 c-27 -12 -80 -42 -118 -64 -37 -23 -69 -42 -71 -42 -2 0
-43 -24 -92 -53 -49 -29 -114 -67 -144 -84 -30 -17 -113 -64 -185 -105 -71
-42 -215 -125 -320 -185 -104 -61 -264 -153 -355 -205 -91 -53 -241 -139 -335
-193 -313 -180 -410 -238 -438 -264 -16 -14 -52 -71 -80 -126 l-52 -100 0
-1425 0 -1425 22 -40 c47 -88 115 -127 220 -127 l73 0 142 81 141 81 271 -156
c149 -87 345 -200 436 -252 91 -52 217 -125 280 -162 63 -37 131 -76 150 -87
19 -11 136 -78 259 -149 218 -125 227 -129 292 -132 81 -5 102 3 323 131 88
52 262 152 386 224 124 72 317 184 430 249 313 180 377 216 482 278 l98 57
107 -63 c165 -95 177 -100 253 -100 120 0 201 59 234 172 14 48 16 198 16
1420 0 1222 -2 1372 -16 1421 -9 30 -22 61 -29 69 -7 8 -26 45 -43 81 -17 36
-39 72 -49 81 -15 14 -69 47 -228 138 -158 91 -382 220 -430 248 -33 19 -89
52 -125 72 -60 34 -268 153 -690 398 -91 52 -223 129 -295 170 -71 41 -166 96
-210 121 -44 26 -95 53 -114 59 -56 20 -140 15 -196 -12z m443 -405 c371 -214
865 -500 1344 -776 l328 -188 -63 -27 c-34 -14 -156 -64 -270 -110 -201 -81
-210 -84 -235 -69 -205 119 -1392 804 -1411 814 -30 15 67 68 -888 -483 -326
-188 -596 -342 -600 -342 -22 0 -533 214 -526 221 4 4 208 123 453 264 615
355 632 365 1105 639 231 135 424 245 428 245 5 1 156 -84 335 -188z m-1252
-3510 c104 -59 308 -177 454 -261 146 -85 310 -179 365 -211 83 -48 102 -56
120 -47 11 6 253 145 538 310 285 164 528 304 541 309 20 10 50 -5 250 -122
l226 -133 -67 -39 c-38 -22 -140 -81 -228 -132 -88 -50 -396 -228 -685 -395
-289 -167 -541 -312 -560 -323 l-35 -19 -350 202 c-192 111 -390 226 -440 255
-49 29 -244 141 -433 250 -208 120 -340 201 -334 207 12 12 434 258 443 258 4
0 92 -49 195 -109z"/>
</g>
</svg>
